<!DOCTYPE svg PUBLIC "-//W3C//DTD SVG 1.1//EN" "http://www.w3.org/Graphics/SVG/1.1/DTD/svg11.dtd">
<!-- Uploaded to: SVG Repo, www.svgrepo.com, Transformed by: SVG Repo Mixer Tools -->
<svg fill="#02457f" height="64px" width="64px" version="1.1" id="Layer_1" xmlns="http://www.w3.org/2000/svg" xmlns:xlink="http://www.w3.org/1999/xlink" viewBox="0 0 512 512" xml:space="preserve">
<g id="SVGRepo_bgCarrier" stroke-width="0"/>
<g id="SVGRepo_tracerCarrier" stroke-linecap="round" stroke-linejoin="round"/>
<g id="SVGRepo_iconCarrier"> <g> <g> <circle cx="139.636" cy="395.636" r="11.636"/> </g> </g> <g> <g> <circle cx="407.273" cy="395.636" r="11.636"/> </g> </g> <g> <g> <path d="M498.036,274.618l-34.909-25.6l-33.745-101.236c-1.164-4.655-5.818-8.145-10.473-8.145H314.182 c-6.982,0-11.636,4.655-11.636,11.636V384H196.655c-5.818-26.764-29.091-46.545-57.018-46.545 c-27.927,0-51.2,19.782-57.018,46.545H34.909c-6.982,0-11.636-4.655-11.636-11.636v-58.182h244.364 c6.982,0,11.636-4.655,11.636-11.636s-4.655-11.636-11.636-11.636h-256C4.655,290.909,0,295.564,0,302.545v69.818 c0,19.782,15.127,34.909,34.909,34.909h47.709c5.818,26.764,29.091,46.545,57.018,46.545c27.927,0,51.2-19.782,57.018-46.545 h117.527c6.982,0,11.636-4.655,11.636-11.636V162.909h84.945l26.764,81.455h-23.273l3.491-6.982c2.327-5.818,0-12.8-4.655-15.127 c-5.818-2.327-12.8,0-15.127,4.655l-9.309,17.455h-27.927c-6.982,0-11.636,4.655-11.636,11.636s4.655,11.636,11.636,11.636h89.6 l33.745,25.6c2.327,2.327,4.655,5.818,4.655,9.309v69.818c0,6.982-4.655,11.636-11.636,11.636h-12.8 c-5.818-26.764-29.091-46.545-57.018-46.545c-32.582,0-58.182,25.6-58.182,58.182c0,32.582,25.6,58.182,58.182,58.182 c27.927,0,51.2-19.782,57.018-46.545h12.8c19.782,0,34.909-15.127,34.909-34.909v-69.818 C512,292.073,507.345,281.6,498.036,274.618z M139.636,430.545c-19.782,0-34.909-15.127-34.909-34.909 c0-19.782,15.127-34.909,34.909-34.909c19.782,0,34.909,15.127,34.909,34.909C174.545,415.418,159.418,430.545,139.636,430.545z M407.273,430.545c-19.782,0-34.909-15.127-34.909-34.909c0-19.782,15.127-34.909,34.909-34.909 c19.782,0,34.909,15.127,34.909,34.909C442.182,415.418,427.055,430.545,407.273,430.545z"/> </g> </g> <g> <g> <path d="M267.636,58.182H34.909c-6.982,0-11.636,4.655-11.636,11.636V256c0,6.982,4.655,11.636,11.636,11.636h232.727 c6.982,0,11.636-4.655,11.636-11.636V69.818C279.273,62.836,274.618,58.182,267.636,58.182z M174.545,81.455v36.073 l-16.291-11.636c-3.491-2.327-9.309-2.327-12.8,0l-16.291,11.636V81.455H174.545z M254.836,244.364H46.545V81.455h58.182v58.182 c0,4.655,2.327,8.145,5.818,10.473s8.145,2.327,11.636,0l27.927-18.618l27.927,18.618c2.327,1.164,4.655,2.327,6.982,2.327 s3.491,0,5.818-1.164c3.491-2.327,5.818-5.818,5.818-10.473V81.455h58.182V244.364z"/> </g> </g> <g> <g> <path d="M128,197.818H81.455c-6.982,0-11.636,4.655-11.636,11.636c0,6.982,4.655,11.636,11.636,11.636H128 c6.982,0,11.636-4.655,11.636-11.636C139.636,202.473,134.982,197.818,128,197.818z"/> </g> </g> </g>
</svg>