<!DOCTYPE svg PUBLIC "-//W3C//DTD SVG 1.1//EN" "http://www.w3.org/Graphics/SVG/1.1/DTD/svg11.dtd">
<!-- Uploaded to: SVG Repo, www.svgrepo.com, Transformed by: SVG Repo Mixer Tools -->
<svg fill="#02457f" width="64px" height="64px" viewBox="0 0 32 32" version="1.1" xmlns="http://www.w3.org/2000/svg">
<g id="SVGRepo_bgCarrier" stroke-width="0"/>
<g id="SVGRepo_tracerCarrier" stroke-linecap="round" stroke-linejoin="round"/>
<g id="SVGRepo_iconCarrier"> <title>layers</title> <path d="M1.704 8.689l14 6c0.087 0.038 0.189 0.061 0.296 0.061s0.209-0.022 0.301-0.062l-0.005 0.002 13.999-6c0.27-0.117 0.455-0.382 0.455-0.689s-0.185-0.572-0.45-0.688l-0.005-0.002-13.999-6c-0.087-0.038-0.189-0.060-0.296-0.060s-0.209 0.022-0.301 0.062l0.005-0.002-14 6c-0.269 0.118-0.454 0.382-0.454 0.689s0.185 0.572 0.449 0.688l0.005 0.002zM16 2.816l12.096 5.184-12.096 5.184-12.096-5.184zM30.295 15.311l-4-1.714c-0.087-0.038-0.189-0.061-0.296-0.061-0.414 0-0.75 0.336-0.75 0.75 0 0.308 0.186 0.572 0.451 0.688l0.005 0.002 2.391 1.024-12.096 5.184-12.096-5.184 2.391-1.024c0.27-0.117 0.456-0.382 0.456-0.69 0-0.414-0.336-0.75-0.75-0.75-0.107 0-0.209 0.022-0.301 0.063l0.005-0.002-4 1.714c-0.27 0.118-0.455 0.382-0.455 0.69s0.185 0.571 0.449 0.687l0.005 0.002 14 6c0.087 0.038 0.189 0.061 0.296 0.061s0.209-0.022 0.301-0.062l-0.005 0.002 13.999-6c0.27-0.117 0.455-0.382 0.455-0.689s-0.185-0.572-0.45-0.688l-0.005-0.002zM30.295 23.311l-4-1.715c-0.087-0.038-0.189-0.061-0.296-0.061-0.414 0-0.75 0.336-0.75 0.75 0 0.308 0.186 0.572 0.451 0.688l0.005 0.002 2.391 1.025-12.096 5.184-12.097-5.184 2.393-1.025c0.269-0.118 0.454-0.382 0.454-0.689 0-0.414-0.336-0.75-0.75-0.75-0.107 0-0.209 0.022-0.301 0.063l0.005-0.002-4 1.715c-0.269 0.118-0.454 0.382-0.454 0.689s0.185 0.572 0.449 0.688l0.005 0.002 14 6c0.087 0.038 0.189 0.061 0.296 0.061s0.209-0.022 0.301-0.062l-0.005 0.002 13.999-6c0.27-0.117 0.455-0.382 0.455-0.689s-0.185-0.572-0.45-0.688l-0.005-0.002z"/> </g>
</svg>