<!DOCTYPE svg PUBLIC "-//W3C//DTD SVG 1.1//EN" "http://www.w3.org/Graphics/SVG/1.1/DTD/svg11.dtd">
<!-- Uploaded to: SVG Repo, www.svgrepo.com, Transformed by: SVG Repo Mixer Tools -->
<svg version="1.1" id="Layer_1" xmlns="http://www.w3.org/2000/svg" xmlns:xlink="http://www.w3.org/1999/xlink" viewBox="0 0 512 512" xml:space="preserve" width="64px" height="64px" fill="#000000">
<g id="SVGRepo_bgCarrier" stroke-width="0"/>
<g id="SVGRepo_tracerCarrier" stroke-linecap="round" stroke-linejoin="round"/>
<g id="SVGRepo_iconCarrier"> <rect x="84.006" y="9.253" style="fill:#FFFFFF;" width="343.99" height="418.076"/> <path style="fill:#FFFFFF;" d="M449.454,427.334H62.547v34.546c0,11.216,9.093,20.309,20.309,20.309h346.29 c11.216,0,20.309-9.093,20.309-20.309L449.454,427.334L449.454,427.334z"/> <path style="fill:#FFFFFF;" d="M135.098,461.88v-34.546H62.547v34.546c0,11.216,9.093,20.309,20.309,20.309h72.551 C144.191,482.188,135.098,473.095,135.098,461.88z"/> <g> <path style="fill:#02457f;" d="M365.152,261.945c-5.111,0-9.253-4.143-9.253-9.253v-44.983c0-5.11,4.142-9.253,9.253-9.253 c5.111,0,9.253,4.143,9.253,9.253v44.983C374.405,257.802,370.262,261.945,365.152,261.945z"/> <path style="fill:#02457f;" d="M302.968,261.945c-5.111,0-9.253-4.143-9.253-9.253v-44.983c0-5.11,4.142-9.253,9.253-9.253 c5.111,0,9.253,4.143,9.253,9.253v44.983C312.221,257.802,308.079,261.945,302.968,261.945z"/> </g> <path style="fill:#02457f;" d="M203.583,85.997h-17.712V62.11c0-16.01-13.025-29.035-29.033-29.035h-71.51v18.506h71.509 c5.805,0,10.527,4.723,10.527,10.529v23.888h-20.358c-14.673,0-26.609,11.936-26.609,26.609v18.365c0,5.11,4.142,9.253,9.253,9.253 h91.289c5.111,0,9.253-4.143,9.253-9.253v-18.365C230.192,97.934,218.255,85.997,203.583,85.997z M211.686,121.72h-72.783v-9.112 c0-4.469,3.635-8.103,8.103-8.103h56.575c4.469,0,8.103,3.636,8.103,8.103v9.112H211.686z"/> <g> <path style="fill:#02457f;" d="M137.588,394.25c-5.111,0-9.253-4.143-9.253-9.253V168.019c0-5.11,4.142-9.253,9.253-9.253 s9.253,4.143,9.253,9.253v216.978C146.841,390.107,142.699,394.25,137.588,394.25z"/> <path style="fill:#02457f;" d="M175.295,394.25c-5.111,0-9.253-4.143-9.253-9.253V168.019c0-5.11,4.142-9.253,9.253-9.253 s9.253,4.143,9.253,9.253v216.978C184.548,390.107,180.406,394.25,175.295,394.25z"/> <path style="fill:#02457f;" d="M213.001,394.25c-5.111,0-9.253-4.143-9.253-9.253V168.019c0-5.11,4.142-9.253,9.253-9.253 s9.253,4.143,9.253,9.253v216.978C222.254,390.107,218.113,394.25,213.001,394.25z"/> </g> <path style="fill:#02457f;" d="M449.454,418.081h-12.205V9.253c0-5.11-4.142-9.253-9.253-9.253H84.006 c-5.111,0-9.253,4.143-9.253,9.253v408.828H62.547c-5.111,0-9.253,4.143-9.253,9.253v34.546c0,16.3,13.261,29.562,29.562,29.562 h19.679v11.306c0,5.11,4.142,9.253,9.253,9.253c5.111,0,9.253-4.143,9.253-9.253v-11.306h269.917v11.306 c0,5.11,4.142,9.253,9.253,9.253c5.111,0,9.253-4.143,9.253-9.253v-11.306h19.681c16.3,0,29.562-13.261,29.562-29.562v-34.546 C458.707,422.224,454.564,418.081,449.454,418.081z M418.743,418.081h-75.431V18.506h75.431L418.743,418.081L418.743,418.081z M93.259,18.506h231.549v399.575H93.259V18.506z M440.201,461.88c0,6.096-4.96,11.056-11.056,11.056h-19.681v-8.557 c0-5.11-4.142-9.253-9.253-9.253c-5.111,0-9.253,4.143-9.253,9.253v8.557H121.041v-8.557c0-5.11-4.142-9.253-9.253-9.253 c-5.111,0-9.253,4.143-9.253,9.253v8.557H82.856c-6.096,0-11.055-4.96-11.055-11.056v-25.293H440.2v25.293H440.201z"/> <g> <path style="fill:#FFFFFF;" d="M397.955,135.009c-5.111,0-9.253-4.143-9.253-9.253V42.484c0-5.11,4.142-9.253,9.253-9.253 c5.111,0,9.253,4.143,9.253,9.253v83.273C407.208,130.866,403.066,135.009,397.955,135.009z"/> <path style="fill:#FFFFFF;" d="M298.028,168.318c-5.111,0-9.253-4.143-9.253-9.253V42.484c0-5.11,4.142-9.253,9.253-9.253 c5.111,0,9.253,4.143,9.253,9.253v116.583C307.281,164.176,303.139,168.318,298.028,168.318z"/> </g> </g>
</svg>